<svg width="360" height="160" viewBox="0 0 360 160" fill="none" xmlns="http://www.w3.org/2000/svg">
  <!-- Card Background -->
  <rect width="360" height="160" rx="12" fill="#0f172a" />
  <!-- Glowing Border -->
  <rect x="1" y="1" width="358" height="158" rx="11" stroke="url(#paint0_linear)" stroke-width="1.5"/>
  
  <!-- Icon Accent Circle -->
  <circle cx="45" cy="45" r="20" fill="url(#paint0_linear)" fill-opacity="0.15" />
  <!-- Flask Icon -->
  <path d="M41 35V39M49 35V39M38 39H52M39 49C37.5 52 41 55 45 55C49 55 52.5 52 51 49L46 41H44L39 49Z" stroke="url(#paint0_linear)" stroke-width="2" stroke-linecap="round" stroke-linejoin="round"/>

  <!-- Text Header -->
  <text x="80" y="42" fill="#ffffff" font-family="'Segoe UI', Helvetica, sans-serif" font-weight="bold" font-size="20">IdeaHub</text>
  <text x="80" y="60" fill="#94a3b8" font-family="'Segoe UI', Helvetica, sans-serif" font-size="12">Smart Laboratory Management</text>
  
  <!-- Description -->
  <text x="25" y="100" fill="#cbd5e1" font-family="'Segoe UI', Helvetica, sans-serif" font-size="13">🧪 PWA • Role-Based Access • Cloud-Ready</text>
  
  <!-- Tech Badges -->
  <rect x="25" y="120" width="55" height="20" rx="4" fill="#1e293b" />
  <text x="52.5" y="134" fill="#38bdf8" font-family="'Segoe UI', sans-serif" font-weight="600" font-size="10" text-anchor="middle">React</text>
  
  <rect x="85" y="120" width="55" height="20" rx="4" fill="#1e293b" />
  <text x="112.5" y="134" fill="#38bdf8" font-family="'Segoe UI', sans-serif" font-weight="600" font-size="10" text-anchor="middle">Node</text>

  <rect x="145" y="120" width="70" height="20" rx="4" fill="#1e293b" />
  <text x="180" y="134" fill="#38bdf8" font-family="'Segoe UI', sans-serif" font-weight="600" font-size="10" text-anchor="middle">MongoDB</text>
  
  <!-- Gradients -->
  <defs>
    <linearGradient id="paint0_linear" x1="0" y1="0" x2="360" y2="160" gradientUnits="userSpaceOnUse">
      <stop stop-color="#38bdf8"/>
      <stop offset="1" stop-color="#818cf8"/>
    </linearGradient>
  </defs>
</svg>
