<svg width="360" height="160" viewBox="0 0 360 160" fill="none" xmlns="http://www.w3.org/2000/svg">
  <!-- Card Background -->
  <rect width="360" height="160" rx="12" fill="#0f172a" />
  <!-- Glowing Border -->
  <rect x="1" y="1" width="358" height="158" rx="11" stroke="url(#paint1_linear)" stroke-width="1.5"/>
  
  <!-- Icon Accent Circle -->
  <circle cx="45" cy="45" r="20" fill="url(#paint1_linear)" fill-opacity="0.15" />
  <!-- Leaf Icon -->
  <path d="M45 53V37M45 42C48 39 52 39 52 42C52 45 48 48 45 48M45 45C42 42 38 42 38 45C38 48 42 51 45 51" stroke="url(#paint1_linear)" stroke-width="2" stroke-linecap="round" stroke-linejoin="round"/>

  <!-- Text Header -->
  <text x="80" y="42" fill="#ffffff" font-family="'Segoe UI', Helvetica, sans-serif" font-weight="bold" font-size="20">KrishiNetra</text>
  <text x="80" y="60" fill="#94a3b8" font-family="'Segoe UI', Helvetica, sans-serif" font-size="12">Agriculture Support Platform</text>
  
  <!-- Description -->
  <text x="25" y="100" fill="#cbd5e1" font-family="'Segoe UI', Helvetica, sans-serif" font-size="13">🌾 MERN • Monitoring • Scalable APIs</text>
  
  <!-- Tech Badges -->
  <rect x="25" y="120" width="55" height="20" rx="4" fill="#1e293b" />
  <text x="52.5" y="134" fill="#34d399" font-family="'Segoe UI', sans-serif" font-weight="600" font-size="10" text-anchor="middle">MERN</text>
  
  <rect x="85" y="120" width="55" height="20" rx="4" fill="#1e293b" />
  <text x="112.5" y="134" fill="#34d399" font-family="'Segoe UI', sans-serif" font-weight="600" font-size="10" text-anchor="middle">PWA</text>

  <rect x="145" y="120" width="70" height="20" rx="4" fill="#1e293b" />
  <text x="180" y="134" fill="#34d399" font-family="'Segoe UI', sans-serif" font-weight="600" font-size="10" text-anchor="middle">REST API</text>
  
  <!-- Gradients -->
  <defs>
    <linearGradient id="paint1_linear" x1="0" y1="0" x2="360" y2="160" gradientUnits="userSpaceOnUse">
      <stop stop-color="#34d399"/>
      <stop offset="1" stop-color="#059669"/>
    </linearGradient>
  </defs>
</svg>
